<?xml version="1.0" encoding="UTF-8" standalone="no"?>
<!-- Created with Inkscape (http://www.inkscape.org/) -->

<svg
   width="316.77399mm"
   height="60.43mm"
   viewBox="0 0 316.77399 60.429999"
   version="1.1"
   id="svg355"
   xml:space="preserve"
   inkscape:version="1.2.2 (b0a8486541, 2022-12-01)"
   sodipodi:docname="falafel-napis-white.svg"
   xmlns:inkscape="http://www.inkscape.org/namespaces/inkscape"
   xmlns:sodipodi="http://sodipodi.sourceforge.net/DTD/sodipodi-0.dtd"
   xmlns="http://www.w3.org/2000/svg"
   xmlns:svg="http://www.w3.org/2000/svg"><sodipodi:namedview
     id="namedview357"
     pagecolor="#ffffff"
     bordercolor="#000000"
     borderopacity="0.25"
     inkscape:showpageshadow="2"
     inkscape:pageopacity="0.0"
     inkscape:pagecheckerboard="0"
     inkscape:deskcolor="#d1d1d1"
     inkscape:document-units="mm"
     showgrid="false"
     inkscape:zoom="2.8284271"
     inkscape:cx="1027.9565"
     inkscape:cy="114.19774"
     inkscape:window-width="1920"
     inkscape:window-height="1001"
     inkscape:window-x="1920"
     inkscape:window-y="0"
     inkscape:window-maximized="1"
     inkscape:current-layer="layer1" /><defs
     id="defs352" /><g
     inkscape:label="Vrstva 1"
     inkscape:groupmode="layer"
     id="layer1"><path
       style="fill:#000000;stroke-width:0.132552"
       d="m 17.186879,60.308933 c -0.1415,-0.10704 -0.215753,-0.19652 -0.164997,-0.19882 0.05077,-10e-4 -0.172253,-0.53976 -0.495596,-1.1943 -0.44917,-0.90924 -0.664655,-1.20932 -0.913211,-1.2717 -0.178923,-0.0449 -0.384478,-0.0452 -0.456781,0 -0.248064,0.15327 -1.360133,-0.19432 -1.991038,-0.62226 -0.651451,-0.44193 -1.471464,-1.29066 -1.471464,-1.523 0,-0.0725 -0.08609,-0.20341 -0.191295,-0.29073 -0.227099,-0.18846 -1.012156,-1.67853 -1.410585,-2.67733 -0.6305161,-1.58062 -1.0773081,-3.61377 -1.3209231,-6.01106 -0.07408,-0.72901 -0.219087,-1.62375 -0.32222,-1.98827 -0.103129,-0.36452 -0.166281,-0.961 -0.14032,-1.32551 0.02597,-0.36452 -0.06541,-1.42405 -0.203025,-2.3545 -0.27976,-1.89148 -0.490701,-2.32303 -1.297965,-2.65548 -0.553147,-0.22779 -3.334876,-1.10478 -3.928344,-1.23848 -1.296063,-0.29195 -2.42845398,-1.18715 -2.76215898,-2.18357 -0.287699,-0.85906 -0.04748,-1.82615 0.752397,-3.02907 0.57492098,-0.86458 2.30515798,-2.52762 3.40155298,-3.26942 0.999337,-0.67614 1.793728,-1.27451 1.8825,-1.41801 0.05118,-0.0827 0.06244,-0.80766 0.02499,-1.61096 -0.08933,-1.91732 -0.61373,-4.15777 -1.49858,-6.40264 -0.141457,-0.358884 -0.318062,-1.091674 -0.392442,-1.628424 -0.130882,-0.94439 -0.122408,-1.00277 0.262294,-1.80884 0.218642,-0.45814 0.472983,-0.83296 0.565199,-0.83296 0.09221,0 0.350836,-0.19393 0.574713,-0.43079 0.223875,-0.23694 0.51444,-0.51813 0.645701,-0.6249 0.317727,-0.25841 1.811541,-1.258441 2.052667,-1.374131 0.104999,-0.0503 0.369825,-0.20638 0.588535,-0.3467 1.1878331,-0.76205 5.0990731,-2.7170901 8.2844801,-4.14104 0.473874,-0.211828 0.980884,-0.435926 1.126689,-0.498008 0.1458,-0.06201 0.473873,-0.203869 0.729035,-0.3151556 0.255162,-0.111215 0.82182,-0.330363 1.25924,-0.486884 0.437422,-0.156564 0.914607,-0.340176 1.060415,-0.408156 0.28558,-0.133083 2.457015,-0.915082 3.645171,-1.312649 1.101457,-0.368562 2.014654,-0.616874 3.910275,-1.0632 2.703863,-0.636642 8.312565,-2.0341329 9.013515,-2.2458439 0.950948,-0.28723 6.960845,-1.30794399 8.474133,-1.43925799 1.3904,-0.120566 2.800236,-0.115099 3.41547,0.01295 1.065645,0.222357 2.137262,1.55137899 2.356296,2.92229589 0.145097,0.908133 -0.07654,1.419289 -0.99522,2.294963 -1.570528,1.497052 -2.366166,2.0028266 -4.435993,2.8198556 -0.619678,0.2446 -1.305633,0.52083 -1.524343,0.6137699 -0.922664,0.3922 -3.687964,1.2723501 -4.78287,1.5223301 -0.650074,0.1484 -1.659143,0.38 -2.242371,0.51464 -0.864521,0.19959 -4.60197,1.27324 -7.621721,2.18946 -0.328065,0.0996 -1.163141,0.343281 -1.855723,0.541671 -1.310358,0.37534 -4.642024,1.44937 -5.103239,1.64511 -0.1458,0.0619 -0.891412,0.36318 -1.656897,0.66955 -2.089603,0.83626 -5.086218,2.34337 -5.949037,2.99196 -0.776195,0.583474 -0.949892,0.893104 -1.134044,2.021554 -0.08018,0.49125 0.188727,1.13684 0.52771,1.26694 0.687533,0.26382 2.584731,-0.0436 4.434544,-0.7187 4.181003,-1.52574 7.85996,-2.38884 9.808825,-2.3012 2.663358,0.11984 5.04453,1.28677 5.4231,2.65784 0.241772,0.87561 -0.567656,2.66139 -1.490031,3.28734 -0.274173,0.18615 -0.53589,0.33828 -0.581589,0.33828 -0.04571,0 -0.177251,0.0819 -0.292355,0.18187 -0.462166,0.40158 -3.498017,1.94116 -7.168228,3.63522 -0.473873,0.21875 -1.637014,0.7677 -2.584758,1.2199 -0.947745,0.45222 -2.110886,0.99605 -2.584758,1.20852 -0.473872,0.21246 -0.957473,0.4402 -1.074664,0.50608 -0.117185,0.0659 -0.691966,0.36379 -1.277274,0.66202 -0.585307,0.29822 -1.144698,0.63923 -1.243091,0.7578 -0.370854,0.44683 -0.04621,6.67525 0.499868,9.59057 0.175053,0.93446 0.196126,1.70335 0.123573,4.50675 -0.112149,4.33256 -0.17163,5.35385 -0.358149,6.14929 -0.267331,1.14003 -0.189232,2.91461 0.196855,4.47288 0.371645,1.49998 0.407189,1.80641 0.240048,2.06963 -0.08261,0.13021 -0.160464,0.12388 -0.362487,-0.0289 z m 175.954151,-5.24576 c -1.66186,-0.40006 -2.27035,-1.51501 -2.27554,-4.16961 -0.001,-1.44845 0.0311,-1.87072 0.3032,-3.77773 0.50486,-3.53792 0.57185,-5.44832 0.26868,-7.66263 -0.32126,-2.34632 -0.22607,-5.83547 0.24661,-9.0389 0.1525,-1.03333 0.49099,-3.62499 0.60597,-4.63931 0.0455,-0.40098 0.10963,-0.9378 0.14258,-1.19298 0.13668,-1.05789 0.31815,-2.63945 0.39517,-3.44633 0.0453,-0.47386 0.10877,-1.04054 0.14099,-1.25925 0.13654,-0.92556 0.27451,-3.644414 0.22537,-4.440464 -0.0443,-0.71834 -0.17311,-1.10139 -0.77415,-2.303801 -0.39653,-0.79321 -0.72093,-1.53263 -0.72093,-1.64316 0,-0.22011 0.72968,-1.07184 2.08578,-2.4345701 1.21087,-1.2168039 1.62542,-1.3302489 4.87317,-1.3338169 1.97951,-0.0014 2.87932,0.160667 4.97067,0.899597 2.16378,0.7645099 4.36864,1.3351099 9.94139,2.57279 6.01506,1.3359 8.21176,2.008031 8.77626,2.685291 0.93006,1.11589 0.78787,1.76174 -0.62637,2.84501 -2.10606,1.61318 -3.58862,2.289544 -6.2279,2.841174 -1.63058,0.34079 -4.8509,0.46838 -6.49502,0.25732 -0.65614,-0.0842 -1.67016,-0.20875 -2.25338,-0.27667 -0.58324,-0.0679 -1.29901,-0.15677 -1.59063,-0.19721 -1.16188,-0.16144 -2.94932,-0.22876 -3.02048,-0.11366 -0.22634,0.36624 -0.5525,2.52168 -0.75506,4.99001 -0.0767,0.93324 -0.1453,1.73851 -0.1527,1.78945 -0.068,0.46946 0.0611,0.84377 0.35837,1.03855 0.3669,0.24043 1.28093,0.26563 1.97593,0.0544 2.3586,-0.7164 4.42426,-0.98263 6.96229,-0.89724 2.88082,0.0968 3.8829,0.47259 4.50726,1.68979 0.3723,0.72576 0.142,1.57099 -0.82023,3.01023 -0.61511,0.92005 -3.73655,3.06293 -5.0788,3.48661 -0.29164,0.0919 -0.65273,0.24699 -0.80248,0.3443 -0.14977,0.0972 -0.59709,0.29187 -0.99414,0.43234 -1.51098,0.53456 -2.45952,0.90355 -2.85991,1.11256 -0.22817,0.11898 -0.65805,0.30035 -0.95532,0.40277 -0.92373,0.31825 -1.86707,1.00902 -2.18207,1.59775 -0.28596,0.53454 -0.29176,0.64551 -0.29176,5.58236 v 5.03698 l -0.37272,0.79531 c -0.20501,0.43741 -0.43287,0.9056 -0.50639,1.0404 -0.0735,0.13481 -0.24103,0.67163 -0.37225,1.19296 l -0.23861,0.94788 -0.97819,0.66753 c -1.82527,1.24561 -4.01502,1.85555 -5.43469,1.5138 z m 96.77876,-1.11212 c -1.36949,-0.29121 -2.62302,-0.69984 -3.02509,-0.98615 -0.20413,-0.14529 -0.52714,-0.30342 -0.71783,-0.35127 -0.19062,-0.0479 -0.44977,-0.20097 -0.57579,-0.34021 -0.12603,-0.13927 -0.30377,-0.25319 -0.395,-0.25319 -0.26184,0 -1.77809,-1.29596 -2.55614,-2.18475 -1.01289,-1.15706 -1.6074,-2.25255 -1.60946,-2.96558 -0.004,-1.03793 1.04402,-3.95286 1.86368,-5.1887 0.12086,-0.18224 0.45149,-0.67908 0.73471,-1.10406 0.28322,-0.42497 0.63421,-0.96759 0.78001,-1.20583 0.14588,-0.23824 0.37905,-0.6063 0.5183,-0.81795 0.13927,-0.21163 0.39276,-0.59677 0.56336,-0.85585 0.17058,-0.25906 0.31015,-0.53511 0.31015,-0.6134 0,-0.0781 0.0944,-0.22063 0.20966,-0.31632 0.11538,-0.0957 0.32196,-0.38634 0.45924,-0.64586 0.13726,-0.25951 0.37507,-0.71042 0.52846,-1.00204 0.15347,-0.29163 0.48201,-0.85828 0.73024,-1.25924 0.24819,-0.40097 0.57584,-0.96764 0.72804,-1.25926 0.15211,-0.2916 0.45174,-0.82844 0.66565,-1.19296 0.21394,-0.36452 0.53825,-0.96099 0.72074,-1.32551 0.18244,-0.36452 0.39218,-0.75225 0.46596,-0.86159 0.0737,-0.10935 0.22665,-0.4076 0.33969,-0.66276 0.11294,-0.25516 0.55935,-1.12006 0.99186,-1.92199 0.43249,-0.80194 0.87918,-1.66684 0.99265,-1.92202 0.36081,-0.81136 1.00103,-2.16694 1.31465,-2.78357 0.16689,-0.32808 0.37059,-0.80525 0.45271,-1.06042 0.082,-0.25516 0.29835,-0.75737 0.48048,-1.11602 0.18206,-0.35865 0.33114,-0.73057 0.33114,-0.82649 0,-0.166694 0.37833,-0.984204 1.18681,-2.564244 0.42582,-0.83222 1.18796,-1.44697 1.80223,-1.45366 0.22236,-10e-4 0.4684,-0.0685 0.54675,-0.14685 0.21613,-0.21614 2.54142,0.2121 2.95923,0.54498 0.18225,0.1451 0.45069,0.32624 0.59649,0.4023 0.3704,0.19315 0.90853,1.00587 1.13482,1.71366 0.45585,1.42585 0.0518,4.921894 -0.75404,6.523754 -0.17291,0.34389 -0.3145,0.7052 -0.3145,0.80292 0,0.0978 -0.20859,0.59181 -0.46352,1.09795 -0.25493,0.50616 -0.46372,0.96043 -0.46393,1.00952 0,0.0842 -0.69525,1.37097 -1.48008,2.74094 -0.19411,0.33888 -0.44782,0.7951 -0.56374,1.01381 -0.11596,0.21871 -0.37463,0.64178 -0.57488,0.94017 -0.20028,0.29837 -0.49689,0.74573 -0.65921,0.99413 -0.16222,0.2484 -0.35767,0.54111 -0.43421,0.65045 -0.0764,0.10935 -0.24196,0.35485 -0.36767,0.54553 -0.12561,0.19062 -0.4075,0.6028 -0.6262,0.91586 -0.21872,0.31305 -0.48713,0.69928 -0.59649,0.85826 -0.29039,0.42222 -0.878,1.25726 -1.25926,1.78945 -0.18283,0.25517 -0.47938,0.67271 -0.65911,0.92787 -0.17971,0.25516 -0.62384,0.88146 -0.98689,1.39182 -0.36304,0.51033 -0.74652,1.11444 -0.85215,1.34246 -0.10561,0.22804 -0.2501,0.45047 -0.321,0.4943 -0.25753,0.15911 -1.12788,2.1128 -1.18031,2.64942 -0.0399,0.40826 0.013,0.63654 0.20965,0.88217 0.23839,0.29984 0.3489,0.32928 1.16193,0.30954 0.49416,-0.0115 1.13847,-0.0945 1.43182,-0.18341 1.23517,-0.37436 2.5373,-0.81443 2.75177,-0.92994 0.12661,-0.0682 0.32126,-0.12388 0.43259,-0.12388 0.11121,0 0.30599,-0.0532 0.4326,-0.11841 0.23994,-0.12344 2.26538,-0.81576 3.4114,-1.16592 0.36452,-0.11151 0.78205,-0.25119 0.92785,-0.31064 0.14588,-0.0596 0.41422,-0.13827 0.59649,-0.17526 0.18225,-0.037 0.55505,-0.13092 0.82844,-0.2088 0.77374,-0.22067 1.38063,-0.39417 1.92201,-0.54943 0.27338,-0.0784 0.73566,-0.1945 1.02728,-0.25785 0.54921,-0.11941 1.33791,-0.30908 2.25338,-0.54183 0.7552,-0.19198 1.69389,-0.36129 2.91813,-0.5263 0.95772,-0.1292 1.22222,-0.11006 2.68382,0.19216 2.1388,0.44232 2.73778,0.81865 2.86823,1.80203 0.0488,0.36854 0.0262,0.90231 -0.0502,1.18619 -0.25519,0.94765 -1.9689,2.27023 -4.50985,3.48047 -1.8094,0.86182 -2.60255,1.19467 -6.5613,2.75353 -0.14587,0.0574 -0.41421,0.17019 -0.59649,0.25067 -0.18224,0.0806 -0.78936,0.32472 -1.34915,0.54278 -0.55975,0.2181 -1.30536,0.52304 -1.65688,0.67765 -0.91144,0.40092 -2.18429,0.94142 -2.49484,1.05944 -0.56487,0.21468 -1.33586,0.54395 -1.55568,0.66441 -0.12661,0.0695 -0.34677,0.12618 -0.48926,0.12618 -0.14258,0 -0.29594,0.0597 -0.341,0.13265 -0.0452,0.0729 -0.21559,0.13265 -0.37896,0.13265 -0.16339,0 -0.35372,0.0501 -0.42298,0.11122 -0.0692,0.0613 -0.48382,0.18614 -0.92124,0.27775 -0.4374,0.0916 -0.93034,0.21958 -1.09538,0.28445 -0.55623,0.21854 -3.47965,0.2613 -4.40549,0.0643 z m -33.73439,-0.73173 c -1.27566,-0.20356 -2.61849,-0.54816 -3.09663,-0.79467 -0.89963,-0.46379 -1.53247,-1.3948 -2.41487,-3.55251 -0.067,-0.16397 -0.17797,-0.43247 -0.24641,-0.59649 -0.73403,-1.75901 -1.26412,-4.07487 -1.16735,-5.09988 0.078,-0.82634 1.22841,-3.94037 2.68223,-7.26059 0.63842,-1.45808 1.4544,-3.42521 1.81323,-4.37139 0.35886,-0.94621 1.19568,-2.97427 1.85961,-4.50677 0.66394,-1.5325 1.58116,-3.77058 2.03829,-4.97348 0.45713,-1.2029 1.04965,-2.71388 1.31669,-3.357714 0.26706,-0.64382 0.60163,-1.58937 0.74346,-2.10123 0.33499,-1.20886 0.68839,-1.89242 1.35798,-2.6267 0.93386,-1.024061 1.44196,-1.241691 2.87403,-1.230851 1.01611,0.007 1.23603,0.0576 2.13653,0.484911 1.44803,0.68714 1.84012,1.27783 2.15002,3.23905 0.30966,1.95979 0.13611,4.032684 -0.47891,5.725084 -0.14569,0.40098 -0.55087,1.51053 -0.90028,2.46571 -0.34937,0.95517 -1.68071,4.08669 -2.95851,6.95894 -1.27777,2.87228 -2.67785,6.14686 -3.11124,7.27686 -0.43341,1.13002 -0.94438,2.42556 -1.13547,2.87902 -0.19101,0.45345 -0.34744,0.91363 -0.34744,1.02262 0,0.39012 0.4275,0.45515 1.401,0.21309 0.90563,-0.22518 2.89376,-0.83892 3.43713,-1.06103 0.26311,-0.10762 1.60395,-0.59105 3.51261,-1.26655 0.54677,-0.19354 1.08362,-0.38485 1.19298,-0.42516 5.02248,-1.85208 7.84979,-2.58198 9.96812,-2.57351 1.0386,0.004 1.25582,0.0519 2.18192,0.47982 1.13167,0.52286 1.31061,0.69234 1.04922,0.99378 -0.0962,0.11107 -0.44918,0.67905 -0.78422,1.2623 -0.3667,0.63829 -1.04622,1.5129 -1.70712,2.19723 -1.14124,1.18163 -3.4348,3.17109 -3.65585,3.17109 -0.0698,0 -0.19943,0.0873 -0.28804,0.19412 -0.0886,0.10675 -0.49854,0.41955 -0.91094,0.69504 -1.14778,0.76675 -1.99646,1.21806 -3.93109,2.09043 -1.24253,0.56029 -1.98771,0.89435 -2.58476,1.15879 -0.32807,0.1453 -0.98421,0.44223 -1.45807,0.65984 -1.6563,0.76059 -4.183,1.79435 -5.10326,2.08789 -0.5103,0.1628 -1.07698,0.35801 -1.25923,0.43377 -0.41896,0.17427 -3.29648,0.24939 -4.17536,0.10906 z m -141.43266,-0.66681 c -0.51032,-0.0599 -1.43487,-0.26083 -2.05455,-0.44654 -1.00373,-0.3008 -1.47064,-0.51485 -3.19091,-1.46273 -1.75695,-0.96811 -4.08526,-3.66068 -4.28179,-4.95165 -0.17957,-1.17951 0.9666,-4.16006 2.4901,-6.47546 0.24275,-0.36896 0.51121,-0.79505 1.18191,-1.87601 0.16964,-0.2734 0.46787,-0.73888 0.66275,-1.03441 0.19489,-0.29553 0.35435,-0.60136 0.35435,-0.67966 0,-0.0781 0.0902,-0.21718 0.20037,-0.30864 0.11021,-0.0914 0.32035,-0.41191 0.46699,-0.7121 0.14664,-0.30022 0.44332,-0.84409 0.65929,-1.20861 0.21598,-0.36451 0.50484,-0.87152 0.64192,-1.12668 0.31108,-0.57907 0.7807,-1.42153 1.36687,-2.4522 0.41586,-0.73123 1.43539,-2.70901 2.00326,-3.88613 0.12949,-0.26845 0.29133,-0.57756 0.35962,-0.68691 0.11207,-0.17952 0.65954,-1.29757 1.52522,-3.11497 0.66775,-1.40182 1.36213,-3.0177 1.93669,-4.506734 0.1407,-0.36452 0.33872,-0.81197 0.44016,-0.99428 0.10144,-0.18226 0.2983,-0.62971 0.43744,-0.99416 0.55804,-1.46146 1.42754,-2.31951 2.35048,-2.31951 0.18517,0 0.33665,-0.0608 0.33665,-0.13524 0,-0.0751 0.16188,-0.105601 0.36452,-0.0689 0.20049,0.0364 0.82994,0.134381 1.3988,0.217691 0.69172,0.10129 1.14665,0.2448 1.37352,0.43338 0.86292,0.71724 1.11437,1.00808 1.45305,1.68082 0.33358,0.66261 0.36339,0.84732 0.36251,2.24632 -0.001,1.711393 -0.33427,3.426113 -0.90324,4.648393 -0.1843,0.39597 -0.33571,0.80496 -0.33642,0.90888 -0.001,0.16688 -0.70419,1.74372 -1.09778,2.4621 -0.0798,0.14587 -0.22753,0.44405 -0.32809,0.66275 -0.10057,0.21872 -0.23606,0.48713 -0.30109,0.59648 -0.065,0.10934 -0.39531,0.70146 -0.73396,1.3158 -0.33863,0.61432 -0.71968,1.27043 -0.84677,1.45806 -0.12704,0.1877 -0.38042,0.5797 -0.56302,0.87131 -0.29852,0.47675 -1.03496,1.59703 -1.56521,2.38103 -0.21412,0.31664 -0.72765,1.04961 -1.25711,1.79436 -1.22877,1.72838 -2.93854,4.25908 -3.24459,4.80245 -0.11208,0.19905 -0.42017,0.73943 -0.68454,1.2008 -0.26436,0.46139 -0.54814,1.15357 -0.63064,1.53817 -0.13466,0.62771 -0.12301,0.73723 0.11381,1.06982 0.56188,0.78909 1.63522,0.61355 6.43205,-1.05192 0.65614,-0.22782 1.29655,-0.47101 1.42313,-0.54043 0.12661,-0.0695 0.34676,-0.12618 0.48925,-0.12618 0.14243,0 0.29311,-0.0551 0.33471,-0.12229 0.0416,-0.0673 0.26683,-0.16435 0.50053,-0.21567 0.23371,-0.0514 0.51635,-0.1397 0.62811,-0.19611 0.11179,-0.0566 0.47159,-0.17506 0.79966,-0.26361 0.32806,-0.0885 0.74559,-0.20666 0.92785,-0.26266 0.18226,-0.056 0.5998,-0.17525 0.92788,-0.26511 0.32806,-0.0899 0.74559,-0.20911 0.92785,-0.26509 0.77088,-0.23685 1.56281,-0.43128 5.41142,-1.32873 1.2767,-0.29769 2.81343,-0.30141 4.18714,-0.0101 1.16343,0.24672 2.3183,0.73133 2.51981,1.05736 0.12833,0.20784 0.24401,1.58183 0.16085,1.91295 -0.26518,1.0566 -2.37428,2.55766 -5.71796,4.06956 -1.25701,0.56838 -1.52098,0.68269 -3.04867,1.32023 -0.14581,0.0609 -1.39843,0.57093 -2.78359,1.13349 -2.41662,0.98151 -2.86482,1.17212 -4.39914,1.87105 -0.37823,0.17233 -0.73987,0.31324 -0.80363,0.31324 -0.0637,0 -0.42508,0.14918 -0.80288,0.33139 -0.37781,0.18224 -0.76474,0.33137 -0.85989,0.33137 -0.0951,0 -0.22962,0.0515 -0.29888,0.11438 -0.13568,0.1233 -1.73909,0.67767 -2.71069,0.93718 -0.32806,0.0875 -0.77542,0.21122 -0.99412,0.27465 -0.61955,0.17973 -2.686,0.25421 -3.71146,0.13381 z m -78.546317,-0.32202 c -0.480762,-0.27349 -0.996164,-1.07925 -1.236713,-1.93342 -0.290578,-1.03184 -0.458937,-2.64468 -0.325069,-3.1141 0.06224,-0.21824 0.113157,-0.58408 0.113157,-0.81303 0,-0.83615 2.485276,-6.13112 3.973866,-8.46648 0.418227,-0.65612 1.047038,-1.72979 1.397358,-2.38593 0.350319,-0.65612 0.976817,-1.7298 1.392219,-2.38592 0.4154,-0.65614 0.93921,-1.55086 1.164024,-1.98827 0.224811,-0.43742 0.59071,-1.06375 0.813105,-1.39181 0.222397,-0.32806 0.404614,-0.73784 0.404926,-0.91059 2.66e-4,-0.17272 -0.273313,-0.88097 -0.608057,-1.57375 -0.501135,-1.03717 -0.577214,-1.28759 -0.430792,-1.41797 0.09782,-0.0872 0.774314,-0.38582 1.503348,-0.66382 0.729035,-0.278 1.438066,-0.61189 1.575643,-0.74195 0.137558,-0.13007 0.382637,-0.61436 0.544602,-1.07622 0.161963,-0.46188 0.723545,-1.8422 1.247945,-3.06741 0.524421,-1.22521 1.243546,-3.014644 1.598066,-3.976544 1.034123,-2.80567 3.403081,-8.265061 4.197855,-9.6741016 0.861229,-1.526906 1.51728,-2.22081 2.711521,-2.868084 0.480625,-0.260484 1.106923,-0.635017 1.391794,-0.832297 0.616831,-0.427176 1.748198,-0.760604 3.075954,-0.90655 1.951693,-0.2145159 3.06863,0.07798 4.003768,1.048424 0.59348,0.615896 0.726405,0.82729 1.723682,2.741519 0.454009,0.871416 0.985321,1.8229836 1.180688,2.1145986 0.195366,0.29162 0.397783,0.61967 0.449822,0.72904 0.05208,0.1093499 0.213667,0.3777699 0.359196,0.5964899 0.951913,1.4306201 1.161221,2.4003601 1.252149,5.8011711 0.03424,1.27803 0.122869,3.0903 0.197079,4.027254 0.19541,2.46701 0.25329,3.36707 0.331155,5.1499 0.03827,0.87484 0.10287,2.3064 0.143586,3.18124 0.24978,5.36488 0.393337,10.42138 0.393337,13.85446 v 3.51545 l -0.435996,0.88559 c -0.429233,0.8719 -0.453692,0.89432 -1.581304,1.45038 -0.629938,0.31063 -1.4311,0.79067 -1.780355,1.06672 -0.349268,0.27608 -0.681516,0.50088 -0.738346,0.49959 -0.12589,-10e-4 -0.757742,-0.75915 -1.3825,-1.65452 -0.779409,-1.117 -1.813057,-3.50654 -2.608881,-6.0311 -0.352693,-1.11884 -0.414286,-1.51885 -0.479719,-3.11499 -0.08978,-2.19093 -0.43578,-3.23821 -1.328734,-4.02224 -0.56495,-0.49602 -0.798156,-0.5115 -3.299304,-0.21893 -0.937109,0.10977 -2.151866,0.23211 -2.69945,0.27215 -1.626006,0.11884 -2.470705,0.49875 -3.548163,1.5954 -0.667719,0.67959 -1.658191,2.04801 -2.26613,3.1308 -0.257362,0.45838 -0.633679,1.04223 -0.836255,1.2974 -0.202579,0.25515 -0.651107,0.96266 -0.996737,1.57221 -0.345626,0.60955 -0.895371,1.49825 -1.22166,1.97483 -0.326291,0.4766 -0.746016,1.17083 -0.932728,1.54275 -0.186705,0.37191 -0.595339,1.03718 -0.908062,1.47836 -0.312723,0.44122 -0.759576,1.1261 -0.993007,1.52199 -1.234544,2.09379 -2.443023,3.43758 -3.529954,3.92517 -0.952408,0.42724 -2.445733,0.55644 -2.971867,0.25714 z m 23.331747,-28.013 c 0.253276,-0.14258 0.543757,-0.49856 0.752993,-0.92308 0.299762,-0.60817 0.343039,-0.87129 0.360563,-2.19236 0.02316,-1.74105 -0.155629,-2.21974 -0.828801,-2.21974 -0.671546,0 -1.833846,1.78065 -2.203933,3.37645 -0.23922,1.03154 -0.164319,1.41856 0.359987,1.8597 0.462123,0.38888 0.984932,0.42209 1.559191,0.099 z m 21.546441,27.14612 c -1.275661,-0.20357 -2.618466,-0.54816 -3.096616,-0.79468 -0.89963,-0.4638 -1.532489,-1.39481 -2.414868,-3.55252 -0.06705,-0.16396 -0.177972,-0.43245 -0.246427,-0.59647 -0.734031,-1.75902 -1.264106,-4.07487 -1.167336,-5.09989 0.07798,-0.82635 1.228396,-3.94036 2.682228,-7.26058 0.638427,-1.45808 1.454408,-3.42521 1.813244,-4.37141 0.358836,-0.94621 1.195664,-2.97425 1.859594,-4.50677 0.663931,-1.5325 1.581171,-3.77056 2.038301,-4.97346 0.45713,-1.20291 1.04963,-2.713894 1.31669,-3.357714 0.26706,-0.64382 0.60163,-1.58939 0.74347,-2.10124 0.33498,-1.20886 0.68838,-1.892431 1.35797,-2.626721 0.93384,-1.02405 1.44195,-1.24166 2.87403,-1.23083 1.01609,0.007 1.23603,0.0576 2.13653,0.48492 1.44803,0.68714 1.8401,1.27783 2.15001,3.239021 0.30966,1.9598 0.13624,4.0327 -0.47892,5.725094 -0.14576,0.40096 -0.55086,1.51053 -0.90026,2.4657 -0.34938,0.95516 -1.68072,4.08671 -2.95851,6.95897 -1.27779,2.87227 -2.67785,6.14686 -3.11126,7.27684 -0.43341,1.13 -0.94436,2.42557 -1.13545,2.87904 -0.1911,0.45344 -0.34746,0.91363 -0.34746,1.0226 0,0.39014 0.42752,0.45515 1.40102,0.2131 0.90563,-0.22518 2.89375,-0.83893 3.43712,-1.06104 0.26311,-0.10762 1.60396,-0.59103 3.51262,-1.26658 0.54678,-0.19354 1.08362,-0.38483 1.19296,-0.42515 5.0225,-1.85205 7.849799,-2.58198 9.968139,-2.57347 1.03858,0.004 1.25582,0.0519 2.18192,0.47982 1.13167,0.52284 1.31061,0.69233 1.04922,0.99378 -0.0963,0.11107 -0.44918,0.67903 -0.78423,1.26226 -0.36669,0.6383 -1.04621,1.51292 -1.70711,2.19725 -1.14122,1.18163 -3.43481,3.17111 -3.65585,3.17111 -0.0698,0 -0.19943,0.0873 -0.28804,0.19411 -0.0886,0.10676 -0.49854,0.41952 -0.910949,0.69504 -1.14777,0.76675 -1.99645,1.21804 -3.9311,2.09042 -1.24251,0.56027 -1.98769,0.89435 -2.58475,1.1588 -0.32806,0.14529 -0.9842,0.44223 -1.45807,0.65984 -1.6563,0.76058 -4.183,1.79432 -5.10325,2.0879 -0.51032,0.16279 -1.07697,0.358 -1.25923,0.43375 -0.41896,0.17427 -3.29648,0.24939 -4.17538,0.10906 z m 149.319479,-0.28095 c -1.74345,-0.33831 -2.17381,-0.44621 -3.3138,-0.83068 -3.29327,-1.11071 -5.5631,-2.25573 -7.13668,-3.60012 -0.35059,-0.29954 -1.47874,-1.82793 -1.48,-2.00508 0,-0.0636 -0.0786,-0.26483 -0.17369,-0.44709 -0.0951,-0.18225 -0.25126,-0.70069 -0.34703,-1.1521 -0.20298,-0.95678 -0.0673,-1.97686 0.48131,-3.61977 0.5897,-1.76572 1.27014,-3.01364 2.89098,-5.30209 0.86639,-1.22321 2.16563,-3.21333 3.11533,-4.77185 0.0668,-0.10934 0.42169,-0.69026 0.789,-1.29094 0.36733,-0.60064 0.66785,-1.12152 0.66785,-1.15749 0,-0.036 0.22853,-0.43925 0.50782,-0.89617 0.2793,-0.45692 0.90901,-1.63603 1.39935,-2.62021 1.76378,-3.54027 2.08129,-3.72987 5.44944,-3.25436 1.23543,0.17447 1.40661,0.16922 2.5185,-0.0752 1.41725,-0.31184 1.88049,-0.42871 2.84986,-0.71898 0.40097,-0.11999 0.9378,-0.26888 1.19297,-0.3307 0.25515,-0.0619 1.12004,-0.296264 1.92198,-0.520984 0.80194,-0.22473 1.69668,-0.46096 1.98829,-0.52497 0.29161,-0.064 1.09265,-0.24142 1.7801,-0.39421 1.37545,-0.30572 2.65203,-0.35898 3.09988,-0.12934 0.51543,0.26428 1.15111,0.95631 1.15111,1.25314 0,0.266514 -0.18594,0.815704 -0.5577,1.647064 -0.39624,0.88612 -1.26117,1.97993 -2.07134,2.61948 -1.43264,1.13089 -5.2857,2.91697 -7.51117,3.48177 -0.21869,0.0554 -1.11342,0.29294 -1.98826,0.52764 -0.87484,0.2347 -1.79939,0.47399 -2.05454,0.53177 -1.94628,0.44066 -2.47384,0.82341 -3.65798,2.65389 -1.06468,1.64586 -1.31033,2.21508 -1.26111,2.92257 0.0204,0.29475 0.85892,0.51781 1.95205,0.51933 1.62511,10e-4 6.02879,-0.55567 7.93771,-1.00574 1.26447,-0.29814 2.19074,-0.44218 3.44971,-0.53655 1.38845,-0.10402 1.97975,0.14301 2.42014,1.01081 0.33633,0.66289 0.31826,0.8569 -0.17623,1.89239 -0.79451,1.66396 -1.82771,2.86616 -3.17522,3.69453 -0.66422,0.40834 -2.04393,1.0012 -2.76538,1.18825 -0.96549,0.25036 -4.31843,0.50066 -6.805,0.50804 -2.54054,0.007 -2.84783,-0.038 -4.87774,-0.72271 -1.56443,-0.52773 -1.93222,-0.59909 -2.24473,-0.43549 -0.8834,0.46239 -2.06319,1.73754 -2.06319,2.22993 0,0.6186 2.27538,1.97578 4.44048,2.64858 0.29159,0.0906 0.65706,0.21214 0.8121,0.27006 0.34823,0.13006 1.62773,0.43629 3.03188,0.72556 2.28472,0.47067 3.22389,0.75692 4.39937,1.34098 1.14673,0.56974 1.89685,1.27023 1.89685,1.77133 0,0.82643 -2.40115,2.37087 -4.55654,2.93083 -1.16048,0.30149 -2.28126,0.29436 -3.92676,-0.0249 z m -72.17989,-9.1204 c -0.59786,-0.27156 -1.21085,-0.92565 -1.33646,-1.42596 -0.13107,-0.52278 0.0206,-1.26356 0.4314,-2.10367 0.5579,-1.14124 1.27096,-1.87679 3.65569,-3.77084 0.0518,-0.041 -0.19715,-1.00307 -0.55315,-2.13772 -0.84033,-2.67834 -1.06529,-3.80725 -1.06529,-5.34569 0,-0.98945 0.0668,-1.4424 0.31149,-2.11695 0.43838,-1.20774 1.06547,-2.12388 1.77588,-2.59442 0.53745,-0.35601 0.72157,-0.40347 1.56529,-0.40347 2.36589,0 3.69572,1.14232 4.66006,4.00302 0.16494,0.4891 0.23685,1.10587 0.23685,2.02996 0,1.30793 -0.0101,1.34597 -0.61498,2.5994 l -0.61496,1.27204 3.41196,0.0656 c 3.80928,0.0734 4.03778,0.12488 4.45576,1.0057 0.30057,0.6334 0.15619,1.23625 -0.41655,1.73912 l -0.46444,0.40776 -2.28192,10e-4 c -2.59468,10e-4 -2.57084,-0.006 -3.98742,1.26832 l -0.74712,0.67251 0.35208,0.85183 c 0.27477,0.6648 0.37117,1.172 0.43898,2.30993 0.0504,0.84496 0.035,1.52774 -0.0367,1.62375 -0.068,0.0912 -0.30294,0.16572 -0.5221,0.16572 -0.32096,0 -0.62088,-0.21722 -1.54127,-1.11631 l -1.14275,-1.11632 -0.92788,0.88435 c -0.73339,0.69901 -1.10841,0.94713 -1.78944,1.18392 -1.08896,0.37866 -2.47958,0.39907 -3.253,0.0479 z m 3.38555,-3.33615 c 0.18226,-0.12805 0.46471,-0.37575 0.62766,-0.55046 0.27745,-0.29743 0.28281,-0.33688 0.0845,-0.61995 l -0.21172,-0.30234 -0.36783,0.35241 c -0.2023,0.19391 -0.55901,0.61861 -0.79269,0.944 l -0.42484,0.59158 0.37676,-0.0912 c 0.20724,-0.0502 0.5259,-0.19596 0.70816,-0.32402 z m 4.54047,-3.53937 c 0.1914,-0.21421 0.17389,-0.24889 -0.22882,-0.453 l -0.43613,-0.22108 0.13912,0.45305 c 0.15813,0.51521 0.23431,0.54725 0.52589,0.22103 z m -0.4529,-7.45587 c 0.0758,-1.68413 -0.64801,-3.14651 -1.71565,-3.46637 -0.73041,-0.21883 -0.84951,-0.0599 -0.83942,1.12039 0.007,0.85838 0.43953,2.74338 1.14161,4.97894 l 0.13999,0.44599 0.61431,-1.04232 c 0.55972,-0.94969 0.61832,-1.13072 0.65906,-2.03663 z"
       id="path387" /></g></svg>
